<svg width="512" height="512" viewBox="0 0 512 512" fill="none" xmlns="http://www.w3.org/2000/svg">
  <rect width="512" height="512" rx="120" fill="#34D399"></rect>
  <rect x="112" y="112" width="288" height="288" rx="72" fill="#050816"></rect>
  <path d="M256 150C219.55 150 190 179.55 190 216C190 246.84 211.16 272.74 239.74 279.98V321H212C200.95 321 192 329.95 192 341C192 352.05 200.95 361 212 361H300C311.05 361 320 352.05 320 341C320 329.95 311.05 321 300 321H272.26V279.98C300.84 272.74 322 246.84 322 216C322 179.55 292.45 150 256 150ZM256 190C270.36 190 282 201.64 282 216C282 230.36 270.36 242 256 242C241.64 242 230 230.36 230 216C230 201.64 241.64 190 256 190Z" fill="#FACC15"></path>
  <path d="M166 196H130V230C130 263.14 156.86 290 190 290H210V250H190C178.95 250 170 241.05 170 230V196H166Z" fill="#FACC15"></path>
  <path d="M346 196H382V230C382 263.14 355.14 290 322 290H302V250H322C333.05 250 342 241.05 342 230V196H346Z" fill="#FACC15"></path>
</svg>